<svg xmlns="http://www.w3.org/2000/svg" viewBox="0 0 768 768"><path d="M383.2 105c-17.8 3.7-32.8 20.7-36.2 41.1-4.2 25 7.1 51.2 25.9 60.1l5.4 2.5-5.9 3.2c-8.9 4.8-24.1 15.8-31.1 22.7-10 9.8-10.6 11.6-21.8 62.9-2.6 11.9-5.8 29.2-7.4 39.5s-9.2 85.5-9.7 96c-.5 8.6-.3 9.9 1.8 13.5 4.5 7.7 14.9 12.2 23.2 10.1 4-1 9.3-6.3 11-10.9 1.3-3.7 3.5-21.5 7.8-63 2.4-23.7 3.7-8.9 1.8 20.3-1.5 22.9-2.9 49.3-4 77.5-.6 14.3-2.2 46.2-3.7 71-2.5 44.5-3.6 76.9-2.6 83.3 1.1 6.7 18.7 21.8 31.6 27 7.2 2.9 14.9 2.7 21.3-.6 4.7-2.4 6.4-5.6 6.4-11.9s-2.6-11.2-11.3-21.1l-7.3-8.4.8-8.1c1-10 11.8-119.2 11.9-120.4 0-.4.5.5 1 2.2.5 1.6 1.4 18.7 2 38 .5 19.2 1.4 39.9 1.9 46 .5 6 1.1 14.9 1.2 19.7.4 12.3 1.8 13.6 24.2 22.3 14.7 5.7 22.1 7.2 29 5.6 9.2-2.1 13.1-8.6 10.6-17.6-1.5-5.4-5.8-9.8-17-17.5l-8.2-5.5-.2-56c-.3-49.9-1.4-96.1-3.1-121.9l-.6-8.9 2.7 3.2c1.4 1.7 4 3.9 5.7 4.8 3.9 2 11.5 2 15.4 0 4.4-2.3 9.1-8.1 10.4-12.9 1.4-5.1 1.4-5.3-7.6-65.3-3.5-23.7-7.1-49.7-8-57.9-3.4-30.2-6.1-45.9-8.7-51.8-3.6-7.8-8.6-12.8-16-16.3-3.4-1.6-6.4-3-6.6-3.1s1.3-2.4 3.4-5.1c16.5-21.4 14.7-57.5-3.8-76.3-9.3-9.4-23.9-14.4-35.6-12m20.2 8.8c19 9 28.7 33.8 22.6 57.7-3.4 13.3-11.5 24.1-21.9 29.2-4.8 2.4-6.8 2.8-14.1 2.8-7.2 0-9.3-.4-14.1-2.8-25.6-12.5-31.8-55.8-11.3-77.8 11.8-12.5 25-15.6 38.8-9.1m19.9 93.5c6.8 3.6 11 8.2 13.6 15.2 1 2.8 3.2 15.7 5 29.4 3 23.2 3.1 24.4 1.4 25.8s-7.7 4.3-8.8 4.3c-.3 0-.5-6.5-.5-14.4 0-11.7-.3-14.6-1.6-15.6-4-3.4-4.1-1.6-5.7 68l-1.5 66.5-4.4 3.8c-5.9 5.1-20.7 12.3-30.2 14.7-12.2 3.1-28.1 2.2-34.3-1.7-.8-.6-1.3-11.2-1.7-36.3l-.7-35.5 5.9-23.5c3.3-12.9 5.7-24 5.5-24.7-.6-1.6-3.9-1.7-4.9-.1-.4.6-2.6 8.7-5 18.1-2.3 9.3-4.7 17.4-5.2 17.9-3.6 3.6-17.3 1-23.6-4.4l-3.8-3.3 5.7-26.5c7.1-32.7 8.9-37.5 16.9-45.5 7-7 22.5-18.2 34.2-24.7 6.6-3.7 9.3-4.6 14.6-5 4.6-.4 8.4-1.5 12.4-3.5 6.8-3.5 8.3-3.4 16.7 1m24.4 89c1.2 8.3 4.7 32.4 7.8 53.5 6.2 42.7 6.2 42.6-.1 48.2-4.9 4.3-10.1 4.2-15-.3-3.4-3.1-3.6-3.5-5-15.2-.7-6.6-1.8-14.5-2.3-17.5-.5-3.1-.7-21.6-.4-42.8.6-33.1.8-37.2 2.2-37.2.9 0 3.4-.9 5.6-1.9 2.2-1.1 4.2-2 4.5-2 .3-.1 1.5 6.8 2.7 15.2m-110 27.3c2.4.3 6.2.4 8.4.1 3.3-.4 3.9-.3 3.5 1-3.5 8.9-6.1 25.5-10.6 67-2.7 25.2-5.3 47.3-5.6 49.2-.3 2-1.9 4.8-3.9 6.8-2.6 2.6-4.1 3.3-7.3 3.3-4.7 0-9.8-3.2-12.5-7.8-1.9-3.2-1.9-4.1-.8-16.5 2.7-30.1 8.3-81.1 10.2-93.2 3-19.6 1.9-17.9 8.5-14 3.1 1.9 7.6 3.7 10.1 4.1m88.6 83.1c2 49.4 2.8 88.2 2.5 131.3l-.3 48.4-3.4 2.3c-2.4 1.6-4.8 2.3-8.4 2.3-6.2 0-13.5-3.3-14.2-6.3-.2-1.2-.9-18.4-1.5-38.2s-2-48.9-3.1-64.6c-1.9-26.8-2-29.1-.5-37.8.9-5.1 2.3-10.5 3.1-12.1 1.3-2.6 1.3-3-.1-4.4-1.8-1.8-4.7-.8-6.3 2.2-1 1.9-5.2 27.7-7.6 46.7-1.4 11.7-10.1 97.6-12.6 124.5-.7 7.4-1.6 14.5-2 15.8-1.9 5.1-12.8 6-21.4 1.7-3-1.4-5.9-3.4-6.4-4.3-.5-1 .3-21.5 1.9-49.7 1.6-26.4 3.3-59.9 3.9-74.5 1.4-33.5 3-64.1 3.8-74.8.6-7.9.7-8.3 2.7-7.8 13 3.4 16.3 3.8 24.6 2.8 14-1.8 31.8-8.8 39.7-15.8 2.1-1.8 4.1-3.3 4.4-3.4.3 0 .9 7.1 1.2 15.7m15.4 189.5c10.4 7.1 12.9 9.7 13.9 14.7 1.4 6.7-5.1 10.1-15.8 8.2-6.8-1.2-27.6-9.2-33-12.7-3.7-2.4-3.8-2.5-3.8-8.9 0-3.6.2-6.5.4-6.5s2.1.7 4.2 1.6c7.4 3.1 22.5.7 21-3.3-.8-2 2.3-.4 13.1 6.9"/></svg>