<?xml version="1.0" standalone="no"?>
<!DOCTYPE svg PUBLIC "-//W3C//DTD SVG 20010904//EN"
 "http://www.w3.org/TR/2001/REC-SVG-20010904/DTD/svg10.dtd">
<svg version="1.0" xmlns="http://www.w3.org/2000/svg"
 width="768.000000pt" height="768.000000pt" viewBox="0 0 768.000000 768.000000"
 preserveAspectRatio="xMidYMid meet">

<g transform="translate(0.000000,768.000000) scale(0.100000,-0.100000)"
fill="#000000" stroke="none">
<path d="M3832 6630 c-178 -37 -328 -207 -362 -411 -42 -250 71 -512 259 -601
l54 -25 -59 -32 c-89 -48 -241 -158 -311 -227 -100 -98 -106 -116 -218 -629
-26 -119 -58 -292 -74 -395 -16 -103 -92 -855 -97 -960 -5 -86 -3 -99 18 -135
45 -77 149 -122 232 -101 40 10 93 63 110 109 13 37 35 215 78 630 24 237 37
89 18 -203 -15 -229 -29 -493 -40 -775 -6 -143 -22 -462 -37 -710 -25 -445
-36 -769 -26 -833 11 -67 187 -218 316 -270 72 -29 149 -27 213 6 47 24 64 56
64 119 0 63 -26 112 -113 211 l-73 84 8 81 c10 100 118 1192 119 1204 0 4 5
-5 10 -22 5 -16 14 -187 20 -380 5 -192 14 -399 19 -460 5 -60 11 -149 12
-197 4 -123 18 -136 242 -223 147 -57 221 -72 290 -56 92 21 131 86 106 176
-15 54 -58 98 -170 175 l-82 55 -2 560 c-3 499 -14 961 -31 1219 l-6 89 27
-32 c14 -17 40 -39 57 -48 39 -20 115 -20 154 0 44 23 91 81 104 129 14 51 14
53 -76 653 -35 237 -71 497 -80 579 -34 302 -61 459 -87 518 -36 78 -86 128
-160 163 -34 16 -64 30 -66 31 -2 1 13 24 34 51 165 214 147 575 -38 763 -93
94 -239 144 -356 120z m202 -88 c190 -90 287 -338 226 -577 -34 -133 -115
-241 -219 -292 -48 -24 -68 -28 -141 -28 -72 0 -93 4 -141 28 -256 125 -318
558 -113 778 118 125 250 156 388 91z m199 -935 c68 -36 110 -82 136 -152 10
-28 32 -157 50 -294 30 -232 31 -244 14 -258 -17 -14 -77 -43 -88 -43 -3 0 -5
65 -5 144 0 117 -3 146 -16 156 -40 34 -41 16 -57 -680 l-15 -665 -44 -38
c-59 -51 -207 -123 -302 -147 -122 -31 -281 -22 -343 17 -8 6 -13 112 -17 363
l-7 355 59 235 c33 129 57 240 55 247 -6 16 -39 17 -49 1 -4 -6 -26 -87 -50
-181 -23 -93 -47 -174 -52 -179 -36 -36 -173 -10 -236 44 l-38 33 57 265 c71
327 89 375 169 455 70 70 225 182 342 247 66 37 93 46 146 50 46 4 84 15 124
35 68 35 83 34 167 -10z m244 -890 c12 -83 47 -324 78 -535 62 -427 62 -426
-1 -482 -49 -43 -101 -42 -150 3 -34 31 -36 35 -50 152 -7 66 -18 145 -23 175
-5 31 -7 216 -4 428 6 331 8 372 22 372 9 0 34 9 56 19 22 11 42 20 45 20 3 1
15 -68 27 -152z m-1100 -273 c24 -3 62 -4 84 -1 33 4 39 3 35 -10 -35 -89 -61
-255 -106 -670 -27 -252 -53 -473 -56 -492 -3 -20 -19 -48 -39 -68 -26 -26
-41 -33 -73 -33 -47 0 -98 32 -125 78 -19 32 -19 41 -8 165 27 301 83 811 102
932 30 196 19 179 85 140 31 -19 76 -37 101 -41z m886 -831 c20 -494 28 -882
25 -1313 l-3 -484 -34 -23 c-24 -16 -48 -23 -84 -23 -62 0 -135 33 -142 63 -2
12 -9 184 -15 382 -6 198 -20 489 -31 646 -19 268 -20 291 -5 378 9 51 23 105
31 121 13 26 13 30 -1 44 -18 18 -47 8 -63 -22 -10 -19 -52 -277 -76 -467 -14
-117 -101 -976 -126 -1245 -7 -74 -16 -145 -20 -158 -19 -51 -128 -60 -214
-17 -30 14 -59 34 -64 43 -5 10 3 215 19 497 16 264 33 599 39 745 14 335 30
641 38 748 6 79 7 83 27 78 130 -34 163 -38 246 -28 140 18 318 88 397 158 21
18 41 33 44 34 3 0 9 -71 12 -157z m154 -1895 c104 -71 129 -97 139 -147 14
-67 -51 -101 -158 -82 -68 12 -276 92 -330 127 -37 24 -38 25 -38 89 0 36 2
65 4 65 2 0 21 -7 42 -16 74 -31 225 -7 210 33 -8 20 23 4 131 -69z"/>
</g>
</svg>
