<svg version="1.0" xmlns="http://www.w3.org/2000/svg" preserveAspectRatio="xMidYMid meet" viewBox="664.2 64.27 392.8 781.65">

<g transform="translate(0.000000,929.000000) scale(0.100000,-0.100000)" fill="#000000" stroke="none">
<path d="M6830 8624 c-30 -16 -74 -47 -97 -70 -78 -79 -105 -164 -84 -266 16 -75 127 -295 195 -385 29 -40 57 -84 60 -99 10 -38 158 -417 229 -584 87 -208 151 -316 525 -898 129 -201 113 -128 137 -637 9 -187 25 -491 37 -675 12 -184 21 -380 21 -435 0 -55 -19 -381 -42 -724 l-42 -623 10 -502 10 -501 -22 -18 c-12 -9 -71 -52 -132 -93 -138 -96 -151 -108 -182 -168 -21 -41 -24 -60 -21 -108 5 -72 27 -105 94 -138 42 -21 62 -25 139 -25 99 1 170 21 414 116 123 48 170 78 196 129 19 37 27 118 17 176 -5 28 -5 60 -1 71 4 11 14 195 23 409 22 550 42 841 57 858 11 12 14 -6 49 -249 29 -197 67 -434 124 -760 14 -77 50 -284 80 -460 31 -176 64 -367 75 -424 l19 -105 -104 -125 c-142 -171 -178 -251 -154 -341 25 -94 127 -147 262 -138 87 7 164 44 296 142 127 95 180 149 210 215 24 53 25 57 14 160 -7 58 -9 129 -6 157 6 49 -2 121 -91 794 -19 140 -39 298 -45 350 -6 52 -18 138 -25 190 -8 52 -21 201 -30 330 -9 129 -29 411 -45 625 -44 579 -50 695 -50 980 0 362 27 964 46 1007 3 7 69 63 146 123 167 130 423 343 507 421 85 78 247 277 411 504 103 141 154 204 188 227 76 52 171 142 233 220 61 77 89 144 89 214 0 94 -93 249 -172 287 -69 34 -99 20 -202 -91 -79 -85 -86 -90 -86 -64 0 37 -49 87 -85 87 -38 0 -80 -47 -99 -109 -8 -29 -21 -100 -27 -159 l-12 -107 -146 -165 c-336 -379 -342 -384 -500 -488 -80 -53 -206 -135 -279 -184 l-132 -89 -90 53 c-74 43 -87 55 -74 63 158 96 258 231 299 403 27 111 17 270 -23 380 -39 105 -103 196 -186 261 -83 66 -157 99 -262 118 -178 30 -346 -27 -481 -164 -94 -96 -142 -205 -166 -380 l-12 -91 -107 142 c-99 132 -118 165 -282 496 l-175 355 14 75 c17 91 19 235 4 279 -13 38 -58 64 -94 55 -14 -3 -36 -20 -50 -37 -13 -17 -26 -29 -29 -27 -2 3 -27 52 -54 110 -28 58 -60 114 -71 124 -35 31 -98 31 -161 0z m195 -219 c61 -123 85 -161 101 -163 26 -4 37 10 58 76 36 110 56 30 32 -132 -9 -62 -16 -127 -16 -144 0 -20 63 -159 178 -394 151 -306 191 -379 255 -464 43 -55 77 -104 77 -107 0 -4 -11 -7 -25 -7 -70 0 -186 -92 -227 -180 -13 -27 -26 -49 -30 -50 -4 0 -15 15 -24 33 -9 17 -34 57 -54 87 -62 91 -90 153 -227 490 -31 74 -82 206 -114 293 -46 124 -67 168 -98 204 -44 49 -141 231 -172 320 -34 100 -21 162 50 231 49 47 97 73 131 70 22 -3 36 -25 105 -163z m3371 -722 c20 -21 50 -66 67 -101 54 -115 27 -190 -123 -340 -41 -41 -101 -93 -135 -117 -44 -31 -83 -74 -136 -146 -165 -228 -311 -418 -381 -496 -87 -98 -276 -263 -300 -263 -28 0 -91 63 -123 122 -25 45 -30 67 -33 144 l-4 91 96 63 c108 70 194 155 466 464 l168 192 17 125 c18 144 33 199 52 199 9 0 13 -16 13 -58 0 -65 22 -99 57 -88 10 3 67 60 127 126 59 66 114 120 121 120 8 0 31 -17 51 -37z m-1893 -78 c179 -38 332 -191 382 -382 19 -74 19 -213 0 -288 -50 -189 -191 -336 -366 -381 -204 -52 -430 60 -532 264 -161 322 -8 697 320 787 64 18 114 18 196 0z m-704 -637 c28 -35 76 -112 107 -172 76 -142 149 -218 265 -275 108 -52 201 -67 309 -52 l78 12 69 -44 c115 -75 172 -100 213 -94 25 3 83 35 174 96 75 51 143 95 151 98 12 4 15 -6 15 -54 0 -85 33 -173 86 -232 25 -28 54 -53 64 -56 11 -4 20 -10 20 -15 0 -5 -91 -81 -202 -170 -123 -98 -210 -174 -220 -193 -31 -60 -59 -602 -57 -1104 0 -188 -2 -346 -5 -352 -4 -6 -36 -20 -72 -31 -90 -27 -237 -27 -345 0 -181 46 -383 139 -463 212 l-47 43 -19 310 c-30 485 -49 822 -59 1051 -7 168 -13 218 -26 245 -10 19 -98 159 -197 312 l-179 279 25 54 c47 102 157 194 233 194 28 0 40 -9 82 -62z m199 -2497 c204 -138 510 -226 699 -201 45 6 103 17 129 25 27 8 49 13 51 11 4 -4 59 -737 78 -1051 13 -195 33 -392 76 -710 32 -242 76 -571 96 -732 l37 -292 -24 -26 c-28 -30 -110 -70 -163 -79 -53 -10 -140 10 -166 38 -17 18 -29 66 -61 252 -22 126 -49 283 -61 349 -11 66 -29 170 -40 230 -10 61 -37 209 -59 330 -22 121 -49 285 -60 365 -110 769 -157 1030 -191 1067 -28 29 -65 30 -80 2 -9 -17 -7 -26 9 -49 13 -17 29 -69 41 -135 19 -99 19 -113 6 -208 -39 -282 -56 -500 -75 -937 -11 -261 -20 -482 -20 -491 0 -26 -107 -69 -171 -69 -56 0 -142 32 -167 62 -9 12 -15 137 -22 501 -8 436 -8 515 10 784 52 820 65 1003 68 1003 2 0 29 -17 60 -39z m1171 -3174 c1 -27 -6 -64 -15 -83 -31 -66 -217 -216 -339 -275 -47 -23 -74 -29 -125 -29 -140 0 -191 80 -130 200 14 27 163 214 210 263 4 5 33 1 65 -9 82 -23 175 -15 256 23 l64 30 7 -36 c4 -20 7 -58 7 -84z"/>
</g>
</svg>