<svg version="1.0" xmlns="http://www.w3.org/2000/svg" preserveAspectRatio="xMidYMid meet" viewBox="561 134.23 414.18 689.62">

<g transform="translate(0.000000,926.000000) scale(0.100000,-0.100000)" fill="#000000" stroke="none">
<path d="M8436 7905 c-94 -24 -174 -72 -256 -155 -125 -126 -180 -262 -180 -449 0 -127 29 -231 97 -351 2 -3 -95 -23 -214 -44 -908 -158 -2156 -402 -2213 -431 -38 -20 -60 -53 -60 -90 1 -65 40 -85 168 -85 108 0 112 -2 112 -58 0 -46 34 -90 80 -103 23 -7 56 -26 73 -42 47 -44 107 -36 210 28 l77 48 248 28 c638 73 806 92 1067 119 154 15 281 27 283 25 2 -2 8 -92 13 -202 12 -264 34 -640 60 -1018 23 -331 22 -346 -10 -820 -53 -762 -56 -849 -43 -1382 l12 -498 -33 -28 c-17 -16 -80 -62 -139 -103 -148 -103 -189 -157 -190 -249 -2 -128 124 -204 296 -177 115 18 440 135 507 183 60 42 85 127 70 234 -6 38 -6 75 -1 84 4 9 15 212 24 451 9 239 18 467 21 505 11 150 28 310 35 318 3 4 19 -75 33 -175 39 -264 82 -512 233 -1348 30 -168 62 -344 70 -392 15 -83 15 -89 -3 -111 -10 -14 -60 -75 -112 -138 -51 -62 -101 -132 -111 -154 -69 -161 8 -283 190 -302 102 -10 212 34 361 147 114 88 188 159 211 204 23 45 27 138 9 245 -5 33 -5 66 1 82 11 32 0 119 -157 1240 -14 97 -32 273 -40 390 -23 326 -53 718 -75 979 -22 257 -37 619 -26 608 12 -10 82 -461 120 -769 17 -133 40 -193 94 -240 49 -43 96 -61 163 -61 119 0 217 84 240 207 7 38 -36 403 -116 985 -47 339 -82 501 -207 960 -77 283 -100 335 -193 438 -59 65 -233 197 -342 260 -35 20 -63 39 -63 42 0 3 17 15 38 26 192 111 316 380 283 617 -34 242 -175 427 -386 507 -78 29 -243 37 -329 15z m259 -80 c170 -45 311 -191 360 -375 19 -70 19 -219 0 -290 -22 -83 -71 -174 -126 -234 -271 -297 -730 -161 -834 249 -45 176 9 378 137 512 65 67 160 124 236 142 60 14 163 12 227 -4z m-481 -1003 c74 -67 156 -108 260 -128 77 -15 100 -16 172 -6 l84 13 123 -77 c224 -141 341 -243 399 -350 27 -50 96 -280 159 -533 l34 -133 -44 -39 c-50 -44 -120 -69 -196 -69 -81 0 -113 15 -125 58 -38 143 -112 367 -122 374 -23 14 -47 9 -58 -13 -9 -16 -5 -39 18 -112 17 -51 53 -171 81 -267 l50 -175 2 -393 c2 -229 -1 -396 -7 -401 -5 -5 -40 -19 -78 -30 -169 -52 -397 -13 -651 109 -99 48 -191 111 -206 140 -4 8 -12 101 -18 205 -7 105 -23 363 -36 575 -14 212 -29 485 -35 607 -6 122 -13 229 -16 237 -9 23 -26 23 -229 0 -104 -12 -194 -20 -201 -17 -19 7 -61 73 -79 122 -24 69 -16 200 14 233 5 5 450 86 645 117 4 0 32 -20 60 -47z m-773 -113 c-26 -75 -2 -217 49 -289 l21 -29 -33 -5 c-18 -3 -73 -10 -123 -15 -49 -6 -250 -28 -445 -51 -670 -76 -612 -66 -713 -133 -64 -43 -100 -46 -105 -9 -2 14 9 37 32 64 56 65 46 127 -22 145 -15 3 -97 2 -182 -4 -163 -11 -233 -8 -227 10 2 6 17 14 33 19 90 24 1716 337 1723 332 2 -2 -2 -17 -8 -35z m-1371 -403 c0 -7 -7 -19 -16 -27 -8 -7 -22 -25 -30 -41 -14 -26 -38 -37 -47 -20 -3 4 -8 26 -12 49 -6 41 -6 42 27 46 67 8 78 7 78 -7z m3399 -793 c28 -104 63 -316 96 -568 44 -342 92 -698 106 -783 11 -75 0 -127 -37 -172 -96 -113 -270 -58 -289 92 -3 29 -40 287 -81 574 -61 434 -81 544 -114 663 -22 78 -40 142 -40 144 0 1 46 2 103 2 90 1 108 4 153 27 27 15 56 34 63 42 20 24 29 19 40 -21z m-1284 -850 c58 -39 208 -108 296 -137 205 -66 375 -70 556 -12 19 6 22 2 27 -41 11 -83 69 -850 86 -1133 6 -102 38 -371 76 -645 36 -258 78 -569 95 -690 16 -121 31 -232 34 -247 13 -78 -171 -169 -283 -139 -88 24 -86 19 -151 381 -186 1022 -221 1224 -301 1775 -37 254 -72 427 -94 460 -23 36 -61 52 -81 35 -19 -16 -19 -40 0 -66 8 -12 24 -68 35 -125 l21 -104 -35 -300 c-27 -230 -38 -371 -46 -605 -5 -168 -13 -387 -16 -488 l-7 -183 -33 -28 c-61 -54 -172 -62 -256 -20 -70 36 -67 13 -80 565 -13 544 -11 578 48 1429 13 193 24 356 24 364 0 11 5 10 23 -3 12 -9 40 -28 62 -43z m1169 -3060 c2 -10 8 -48 12 -85 6 -61 4 -72 -19 -111 -38 -65 -224 -215 -337 -273 -47 -24 -68 -28 -137 -28 -94 -1 -129 16 -151 76 -26 67 7 127 178 331 52 63 69 77 85 71 105 -33 130 -36 195 -24 36 6 85 22 110 35 55 29 57 30 64 8z"/>
</g>
</svg>