<svg version="1.0" xmlns="http://www.w3.org/2000/svg" preserveAspectRatio="xMidYMid meet" viewBox="730.22 111.12 196.7 731.65">

<g transform="translate(0.000000,929.000000) scale(0.100000,-0.100000)" fill="#000000" stroke="none">
<path d="M8256 8159 c-152 -37 -283 -134 -377 -277 -132 -202 -148 -480 -40 -702 26 -55 26 -55 8 -90 -12 -25 -16 -47 -12 -76 l6 -40 -50 -23 c-136 -61 -272 -290 -397 -667 -81 -245 -98 -331 -90 -443 3 -47 7 -135 9 -196 5 -178 47 -253 170 -311 28 -12 80 -26 116 -29 106 -10 161 -25 161 -43 0 -10 7 -118 16 -242 8 -124 12 -245 9 -270 -3 -25 -14 -189 -25 -365 -11 -176 -27 -428 -35 -560 -8 -132 -18 -295 -21 -362 -4 -67 -1 -354 6 -637 10 -410 11 -518 1 -530 -7 -8 -73 -56 -147 -107 -74 -50 -145 -105 -159 -121 -68 -80 -85 -167 -50 -242 23 -49 74 -82 160 -103 65 -16 73 -16 154 1 159 32 492 160 533 203 58 63 78 145 59 246 -6 36 -7 66 -1 80 5 12 14 162 20 332 22 613 29 762 41 892 19 195 19 195 85 -232 24 -159 66 -411 93 -560 27 -148 66 -364 86 -480 20 -115 54 -309 76 -430 22 -121 42 -236 45 -255 5 -32 -1 -42 -67 -115 -160 -179 -203 -253 -203 -345 1 -113 70 -178 207 -195 112 -14 218 26 386 149 108 77 202 169 225 221 17 34 18 54 11 160 -4 66 -6 129 -6 140 9 97 1 159 -145 1247 -19 142 -39 317 -44 390 -20 265 -40 520 -70 888 -49 620 -63 1021 -40 1205 5 42 41 166 88 305 153 451 185 732 101 906 -52 111 -134 181 -397 339 -62 37 -110 71 -105 74 4 4 34 24 66 45 130 87 239 244 284 406 24 89 24 281 0 370 -62 234 -247 414 -468 456 -98 19 -177 17 -273 -7z m296 -88 c395 -109 515 -660 214 -978 -93 -99 -187 -152 -300 -168 l-50 -8 42 40 c33 32 42 47 42 74 0 46 -23 76 -67 88 -52 15 -109 -1 -226 -61 -93 -48 -100 -50 -127 -37 -31 16 -132 135 -160 189 -87 171 -87 398 1 578 62 127 193 236 339 283 75 24 206 24 292 0z m-608 -1043 c8 -13 20 -45 27 -73 22 -92 38 -95 159 -26 127 73 247 124 277 116 13 -3 23 -11 21 -18 -2 -7 -45 -34 -96 -60 -72 -37 -93 -53 -98 -74 -5 -20 -2 -31 15 -44 31 -25 61 -97 61 -147 0 -34 -6 -48 -27 -68 -42 -39 -125 -83 -180 -94 -58 -13 -75 -28 -93 -85 -55 -173 -192 -485 -255 -579 -50 -76 -121 -154 -158 -173 -63 -32 -145 -11 -188 48 -30 43 -37 142 -15 240 15 64 94 329 101 337 7 8 55 -11 55 -22 0 -6 -16 -35 -35 -63 -43 -64 -46 -100 -9 -109 16 -4 30 -2 39 7 7 8 61 90 120 184 59 93 135 211 169 261 l62 92 13 126 c7 70 10 153 6 186 -7 65 3 78 29 38z m-105 -175 c-4 -103 -22 -147 -134 -316 -106 -162 -111 -167 -139 -162 -16 3 -32 8 -35 11 -16 15 119 305 178 384 36 48 105 110 122 110 5 0 9 -12 8 -27z m817 -80 c304 -175 403 -262 440 -391 31 -106 0 -392 -66 -604 -19 -61 -23 -66 -53 -72 -75 -13 -233 42 -291 103 l-25 26 30 138 c24 109 28 141 18 153 -14 17 -43 18 -57 2 -6 -7 -33 -112 -61 -233 -28 -120 -61 -254 -72 -297 -20 -74 -22 -77 -47 -73 -15 3 -92 14 -172 25 -210 30 -434 70 -443 80 -14 13 -27 81 -27 141 0 48 7 70 45 141 54 101 89 183 165 388 l58 155 58 21 c129 46 205 100 225 161 11 34 8 117 -7 169 -5 19 1 21 68 31 40 5 75 10 77 11 2 1 63 -33 137 -75z m9 -1023 c10 -16 114 -66 174 -84 30 -9 76 -16 103 -16 26 0 48 -4 48 -9 0 -36 -136 -360 -186 -442 -41 -69 -107 -109 -179 -109 -118 0 -395 78 -688 194 -155 62 -229 86 -277 91 -177 18 -250 78 -266 219 l-7 55 43 -21 c64 -32 153 -30 212 5 24 14 50 33 58 41 20 25 28 20 60 -44 18 -36 40 -64 53 -69 32 -12 258 -57 407 -80 248 -39 311 -45 327 -35 9 6 27 55 43 119 44 173 50 195 60 195 5 0 12 -5 15 -10z m-744 -546 c138 -56 316 -115 457 -151 246 -63 353 -52 455 45 l37 36 2 -242 c1 -133 2 -256 2 -274 1 -31 -2 -33 -69 -57 -62 -23 -85 -25 -205 -25 -121 1 -146 4 -242 32 -186 55 -405 164 -461 231 -22 26 -25 43 -35 207 -13 188 -14 224 -9 224 2 0 32 -12 68 -26z m139 -574 c276 -139 542 -182 740 -120 36 11 68 20 71 20 11 0 46 -431 89 -1075 24 -369 18 -314 86 -805 57 -410 90 -658 120 -918 18 -151 18 -152 -3 -180 -50 -68 -210 -111 -298 -79 -75 27 -71 12 -190 692 -13 77 -51 289 -84 470 -33 182 -67 377 -75 435 -15 101 -41 268 -106 699 -41 270 -75 437 -95 467 -9 14 -27 30 -40 36 -20 9 -29 8 -45 -7 -25 -23 -25 -27 3 -69 16 -23 30 -68 42 -140 l18 -107 -26 -232 c-40 -345 -45 -422 -63 -892 -20 -571 -18 -540 -37 -569 -20 -30 -98 -56 -167 -56 -63 0 -131 25 -166 61 l-28 29 -13 523 c-8 366 -9 573 -2 692 13 224 57 924 69 1095 6 74 10 138 10 142 0 5 21 -8 47 -28 26 -20 90 -58 143 -84z m1124 -3207 c10 -64 7 -133 -9 -162 -34 -67 -287 -261 -386 -297 -24 -8 -74 -16 -110 -16 -84 -1 -136 22 -156 70 -29 69 6 140 142 292 22 25 55 63 74 84 l33 39 50 -18 c73 -26 215 -18 283 17 67 34 71 34 79 -9z"/>
</g>
</svg>